HIERARCHY
ROOT Hips
{
	OFFSET 56.877701 -32.693596 43.373703
	CHANNELS 6 Xposition Yposition Zposition Zrotation Xrotation Yrotation
	JOINT Chest
	{
		OFFSET -0.779999 1.005800 5.403099
		CHANNELS 6 Xposition Yposition Zposition Zrotation Xrotation Yrotation
		JOINT Chest2
		{
			OFFSET 0.000000 0.000000 4.236801
			CHANNELS 6 Xposition Yposition Zposition Zrotation Xrotation Yrotation
			JOINT Neck
			{
				OFFSET 0.000000 0.000000 9.874401
				CHANNELS 6 Xposition Yposition Zposition Zrotation Xrotation Yrotation
				JOINT Head
				{
					OFFSET 0.000000 0.000002 2.173893
					CHANNELS 6 Xposition Yposition Zposition Zrotation Xrotation Yrotation
					End Site
					{
						OFFSET 0.000000 0.000000 6.508102
					}
				}
			}
			JOINT LeftCollar
			{
				OFFSET 2.681599 -0.377600 5.432499
				CHANNELS 6 Xposition Yposition Zposition Zrotation Xrotation Yrotation
				JOINT LeftShoulder
				{
					OFFSET 5.161499 0.000000 0.000000
					CHANNELS 6 Xposition Yposition Zposition Zrotation Xrotation Yrotation
					JOINT LeftElbow
					{
						OFFSET 0.000000 0.000000 -10.869099
						CHANNELS 6 Xposition Yposition Zposition Zrotation Xrotation Yrotation
						JOINT LeftWrist
						{
							OFFSET 0.000000 0.000000 -13.344799
							CHANNELS 6 Xposition Yposition Zposition Zrotation Xrotation Yrotation
							End Site
							{
								OFFSET 0.000000 0.000000 -2.173901
							}
						}
					}
				}
			}
			JOINT RightCollar
			{
				OFFSET -2.381901 -1.419600 6.136600
				CHANNELS 6 Xposition Yposition Zposition Zrotation Xrotation Yrotation
				JOINT RightShoulder
				{
					OFFSET -4.550499 0.000000 0.000000
					CHANNELS 6 Xposition Yposition Zposition Zrotation Xrotation Yrotation
					JOINT RightElbow
					{
						OFFSET 0.000000 0.000000 -11.106499
						CHANNELS 6 Xposition Yposition Zposition Zrotation Xrotation Yrotation
						JOINT RightWrist
						{
							OFFSET 0.000000 0.000000 -12.874298
							CHANNELS 6 Xposition Yposition Zposition Zrotation Xrotation Yrotation
							End Site
							{
								OFFSET 0.000000 0.000000 -2.173901
							}
						}
					}
				}
			}
		}
	}
	JOINT LeftHip
	{
		OFFSET 2.431900 0.469601 -2.489399
		CHANNELS 6 Xposition Yposition Zposition Zrotation Xrotation Yrotation
		JOINT LeftKnee
		{
			OFFSET 0.000000 -0.000004 -18.200201
			CHANNELS 6 Xposition Yposition Zposition Zrotation Xrotation Yrotation
			JOINT LeftAnkle
			{
				OFFSET 0.000000 0.000000 -16.279900
				CHANNELS 6 Xposition Yposition Zposition Zrotation Xrotation Yrotation
				End Site
				{
					OFFSET 0.000000 -8.394100 0.000000
				}
			}
		}
	}
	JOINT RightHip
	{
		OFFSET -1.987999 -0.073502 -2.713001
		CHANNELS 6 Xposition Yposition Zposition Zrotation Xrotation Yrotation
		JOINT RightKnee
		{
			OFFSET 0.000000 -0.000004 -19.547802
			CHANNELS 6 Xposition Yposition Zposition Zrotation Xrotation Yrotation
			JOINT RightAnkle
			{
				OFFSET 0.000000 0.000000 -14.881199
				CHANNELS 6 Xposition Yposition Zposition Zrotation Xrotation Yrotation
				End Site
				{
					OFFSET 0.000000 -7.922699 0.000000
				}
			}
		}
	}
}
MOTION
Frames: 10
Frame Time: 0.041667
52.550900 -35.769592 42.833099 4987.169392 2.643188 2.968237 -0.780002 1.005798 5.403091 52.816545 -4.108596 13.488216 0.000004 -0.000008 4.236810 -29.235071 2.239156 -1.842463 0.000010 0.000001 9.874413 54.463023 0.938628 -17.316693 -0.000000 0.000006 2.173887 2.266009 1.108610 6.116975 2.681608 -0.377604 5.432508 10.479229 -1.791919 -15.299713 5.161502 -0.000005 0.000006 -245.229090 -118.251079 -340.324885 0.000008 -0.000002 -10.869099 70.676783 -32.014715 87.351528 -0.000007 0.000005 -13.344799 7.855230 -23.359290 38.786138 -2.381896 -1.419605 6.136597 13.657791 -6.648758 27.184882 -4.550503 0.000006 -0.000002 -1246.198067 -537.906576 -452.020335 0.000009 -0.000004 -11.106504 727.575902 -20.878126 715.749948 -0.000000 0.000000 -12.874306 -279.505274 1.818170 72.590246 2.431895 0.469597 -2.489403 9.693203 -3.267245 -7.900011 0.000002 -0.000003 -18.200203 -148.224230 18.790480 128.927334 -0.000001 -0.000007 -16.279892 58.358400 22.698542 43.110918 -1.988005 -0.073499 -2.713005 5.989151 5.695200 -5.796544 -0.000006 -0.000006 -19.547806 -1838.477538 14.790862 -11.109593 0.000002 -0.000003 -14.881195 2170.300368 27.733870 -332.630185
52.552002 -35.750397 42.835300 4987.193871 2.621513 2.982149 -0.780001 1.005815 5.403090 52.806412 -4.158676 13.442791 0.000007 -0.000001 4.236794 -29.217739 2.230772 -1.839616 0.000009 -0.000007 9.874409 54.525861 1.038908 -17.308575 0.000009 -0.000003 2.173896 2.465300 1.212174 6.027930 2.681605 -0.377606 5.432501 10.333972 -1.665013 -15.306951 5.161512 -0.000001 0.000003 -245.148467 -118.199374 -340.342043 0.000007 0.000006 -10.869112 70.737906 -32.002226 87.324631 -0.000011 0.000010 -13.344802 7.861510 -23.360900 38.729905 -2.381897 -1.419602 6.136594 13.908355 -6.368902 27.391254 -4.550505 0.000001 0.000003 -1246.576623 -537.798495 -452.181582 -0.000003 -0.000010 -11.106500 727.054950 -20.871386 715.507122 0.000009 -0.000001 -12.874293 -279.080382 1.937460 72.702951 2.431904 0.469603 -2.489404 9.740661 -3.337699 -8.013436 0.000001 0.000001 -18.200207 -148.217414 18.733886 128.944341 -0.000003 -0.000001 -16.279890 58.450266 22.658005 43.041537 -1.987995 -0.073494 -2.713000 6.066163 5.705316 -5.857221 -0.000007 -0.000000 -19.547806 -1838.552944 14.737069 -11.117379 -0.000003 -0.000004 -14.881195 2170.255343 27.758801 -332.607509
52.552902 -35.732803 42.838100 4987.215728 2.580923 2.987967 -0.780005 1.005806 5.403101 52.725615 -3.939866 13.392331 0.000001 -0.000007 4.236806 -29.263833 2.170582 -1.873475 0.000002 0.000003 9.874393 54.562491 0.948831 -17.152519 0.000002 0.000009 2.173887 2.699464 1.383640 5.884494 2.681602 -0.377602 5.432496 10.662290 -1.997653 -15.413502 5.161503 -0.000002 0.000000 -245.229609 -118.197448 -340.024548 -0.000002 0.000002 -10.869089 70.738719 -32.055266 87.252026 -0.000004 0.000000 -13.344801 7.924934 -23.374552 38.709455 -2.381898 -1.419598 6.136590 13.731772 -6.901024 27.360145 -4.550509 0.000002 0.000003 -1246.233147 -538.036131 -452.304908 0.000005 -0.000002 -11.106502 726.641259 -20.858184 715.282217 -0.000005 -0.000008 -12.874308 -278.606148 2.054305 73.044980 2.431899 0.469605 -2.489394 9.782766 -3.391231 -8.119807 -0.000010 -0.000006 -18.200211 -148.181760 18.643625 128.940817 0.000000 -0.000005 -16.279896 58.535520 22.694328 43.076565 -1.987999 -0.073498 -2.712996 6.211423 5.737571 -5.915214 0.000000 0.000003 -19.547798 -1838.636217 14.694206 -11.116969 -0.000006 0.000000 -14.881198 2170.177315 27.740065 -332.615651
52.553699 -35.715595 42.840199 4987.242830 2.526895 3.000017 -0.780000 1.005801 5.403098 52.734548 -4.043612 13.275123 0.000000 -0.000008 4.236801 -29.218368 2.198808 -1.838602 0.000010 0.000009 9.874414 54.437055 1.141182 -17.096144 0.000001 0.000000 2.173895 2.920996 1.270557 5.590117 2.681609 -0.377593 5.432506 10.480404 -1.799859 -15.338477 5.161486 0.000000 -0.000003 -245.515357 -118.162942 -340.378926 0.000002 -0.000007 -10.869093 70.612859 -32.152757 87.154061 -0.000009 0.000016 -13.344803 7.932933 -23.355596 38.706088 -2.381896 -1.419599 6.136600 13.990988 -6.602545 27.650559 -4.550503 -0.000011 0.000007 -1246.639461 -537.939033 -452.527681 -0.000005 -0.000010 -11.106499 725.757542 -20.771348 714.880383 -0.000006 0.000004 -12.874304 -277.859636 2.170427 73.004682 2.431901 0.469595 -2.489393 9.804671 -3.435094 -8.228646 0.000005 -0.000003 -18.200203 -148.131531 18.547626 128.929287 -0.000006 0.000011 -16.279905 58.635111 22.734044 43.161792 -1.987999 -0.073506 -2.712996 6.387077 5.780729 -5.982786 -0.000000 0.000000 -19.547806 -1838.742877 14.657646 -11.118582 0.000000 -0.000009 -14.881201 2170.088359 27.702378 -332.615760
52.554699 -35.699398 42.840706 4987.268621 2.475128 3.025588 -0.780008 1.005807 5.403090 52.671072 -3.906026 13.190468 0.000003 -0.000002 4.236797 -29.282947 2.175639 -1.853286 0.000003 0.000002 9.874415 54.511439 0.997567 -17.115071 0.000004 0.000006 2.173893 3.024668 1.210032 5.374660 2.681603 -0.377595 5.432502 10.787818 -2.095385 -15.417885 5.161518 0.000001 0.000009 -245.708378 -118.178624 -340.188117 -0.000003 -0.000002 -10.869104 70.522058 -32.249025 87.039805 0.000002 0.000003 -13.344798 8.008720 -23.357437 38.736499 -2.381902 -1.419597 6.136602 13.826332 -7.105089 27.623315 -4.550504 0.000000 0.000005 -1246.333359 -538.184264 -452.728707 0.000012 -0.000003 -11.106501 726.304722 -20.895890 715.085999 -0.000012 -0.000004 -12.874303 -278.303270 2.246534 73.268382 2.431900 0.469600 -2.489394 9.770119 -3.452524 -8.307965 -0.000001 -0.000013 -18.200201 -148.157868 18.588595 129.001195 -0.000002 -0.000001 -16.279900 58.616499 22.757407 43.240268 -1.988003 -0.073498 -2.713006 6.576661 5.822351 -6.060991 -0.000008 -0.000001 -19.547804 -1838.869209 14.624892 -11.130029 -0.000005 -0.000006 -14.881201 2169.998091 27.664407 -332.600433
52.556602 -35.686600 42.839100 4987.189063 2.501888 3.062099 -0.779998 1.005806 5.403102 52.816261 -4.185190 13.082536 0.000003 -0.000010 4.236793 -29.223128 2.154010 -1.904076 -0.000001 0.000001 9.874405 54.500733 1.352712 -17.102910 -0.000000 0.000004 2.173885 3.132449 1.019277 5.162012 2.681594 -0.377597 5.432502 9.582502 -1.428883 -15.078589 5.161507 0.000003 -0.000004 -244.834442 -118.319982 -340.523971 -0.000007 0.000000 -10.869109 70.497340 -32.734884 86.971674 -0.000007 0.000005 -13.344790 8.386369 -23.297873 38.688971 -2.381903 -1.419598 6.136599 14.521465 -4.270511 27.074161 -4.550507 -0.000002 0.000004 -1247.933154 -536.457264 -451.568203 0.000002 -0.000006 -11.106509 727.093800 -20.764972 715.333252 -0.000006 -0.000001 -12.874295 -278.963968 2.297621 73.573063 2.431897 0.469603 -2.489391 9.794975 -3.551535 -8.373556 -0.000003 -0.000005 -18.200203 -148.071644 18.566667 129.031713 -0.000002 -0.000004 -16.279892 58.682185 22.762910 43.375553 -1.988004 -0.073494 -2.712998 6.750060 5.820176 -6.104867 -0.000002 -0.000005 -19.547802 -1838.928659 14.580579 -11.247428 -0.000003 -0.000001 -14.881198 2169.927276 27.667585 -332.515110
52.557404 -35.668900 42.836399 4987.160212 2.452715 3.080274 -0.780008 1.005804 5.403100 52.817440 -4.075321 13.007443 -0.000003 0.000003 4.236795 -29.318495 2.071712 -1.996647 0.000002 0.000001 9.874393 54.494821 1.318992 -16.980007 0.000007 0.000004 2.173894 3.126363 0.996298 5.117302 2.681599 -0.377597 5.432486 9.036248 -1.438475 -15.055366 5.161512 0.000004 0.000002 -243.647792 -118.487472 -339.930920 0.000004 0.000000 -10.869091 70.546463 -33.048891 86.917408 0.000000 0.000004 -13.344798 8.609584 -23.334872 38.594179 -2.381905 -1.419600 6.136586 14.678573 -2.406676 25.948643 -4.550500 -0.000005 0.000009 -1248.472684 -535.099641 -450.152742 0.000007 -0.000003 -11.106508 727.841350 -20.592271 715.601597 0.000001 -0.000011 -12.874301 -279.545982 2.346731 73.933574 2.431895 0.469600 -2.489405 9.730075 -3.560729 -8.452125 0.000012 -0.000003 -18.200199 -147.975215 18.583758 129.070071 -0.000005 0.000007 -16.279892 58.711910 22.792838 43.406675 -1.988005 -0.073499 -2.712993 6.897117 5.882458 -6.147773 0.000000 -0.000002 -19.547802 -1838.996414 14.566167 -11.352667 -0.000005 0.000000 -14.881199 2169.847499 27.645269 -332.428886
52.557304 -35.651505 42.832603 4987.123930 2.378556 3.106094 -0.780004 1.005792 5.403095 52.877221 -4.140476 12.868603 0.000001 -0.000001 4.236803 -29.349705 1.986576 -2.074611 0.000000 0.000002 9.874393 54.505965 1.471896 -16.971702 0.000006 0.000003 2.173892 3.100278 0.892690 5.097609 2.681603 -0.377598 5.432495 8.116199 -0.971535 -14.803928 5.161506 0.000005 0.000005 -243.020535 -118.665016 -340.282155 -0.000001 0.000003 -10.869092 70.414804 -33.288276 86.936963 0.000002 0.000011 -13.344812 8.741829 -23.331682 38.379369 -2.381898 -1.419602 6.136588 15.199363 0.019943 25.046982 -4.550498 -0.000005 0.000000 -1249.536336 -533.525201 -448.858449 0.000001 -0.000004 -11.106503 728.867299 -20.470681 715.947478 -0.000009 0.000003 -12.874302 -280.516853 2.300321 73.839044 2.431900 0.469595 -2.489403 9.693870 -3.553408 -8.540902 -0.000008 -0.000005 -18.200201 -147.925628 18.621592 129.123442 -0.000007 -0.000001 -16.279903 58.700217 22.801214 43.402102 -1.988001 -0.073499 -2.712997 7.022044 5.964084 -6.203825 -0.000004 -0.000003 -19.547802 -1839.066574 14.551848 -11.447304 -0.000005 -0.000001 -14.881203 2169.796792 27.641395 -332.337443
52.555305 -35.633801 42.828102 4987.092457 2.114888 3.031328 -0.780009 1.005794 5.403099 52.847315 -3.692849 12.674564 -0.000002 -0.000003 4.236788 -29.422105 1.803006 -2.203436 0.000006 0.000007 9.874404 54.644631 1.324040 -16.955429 0.000003 0.000003 2.173884 2.952138 0.955199 5.160901 2.681601 -0.377601 5.432502 7.586943 -0.873571 -14.698156 5.161509 -0.000005 0.000006 -242.212906 -118.860373 -340.093560 0.000009 -0.000004 -10.869092 70.470559 -33.500404 86.936738 -0.000005 0.000000 -13.344798 8.863600 -23.331064 38.258990 -2.381895 -1.419596 6.136597 15.388370 1.753157 23.848859 -4.550506 -0.000008 0.000001 -1249.903964 -532.228776 -447.400777 0.000003 -0.000008 -11.106499 730.237599 -20.280457 716.368490 -0.000002 -0.000011 -12.874299 -281.532256 2.314756 74.170902 2.431904 0.469597 -2.489396 9.675042 -3.341030 -8.565931 0.000006 -0.000002 -18.200203 -147.898307 18.666914 129.180884 0.000002 0.000003 -16.279892 58.653280 22.774328 43.394552 -1.988001 -0.073499 -2.712996 7.114115 6.241102 -6.185035 -0.000007 0.000002 -19.547806 -1839.134111 14.553400 -11.526427 -0.000006 -0.000011 -14.881197 2169.771438 27.627427 -332.238406
52.551899 -35.617001 42.823101 4987.067540 1.805926 2.972674 -0.780005 1.005817 5.403099 52.914254 -3.602912 12.365595 0.000000 -0.000007 4.236801 -29.414459 1.751269 -2.239142 0.000008 0.000002 9.874405 54.534372 1.617047 -16.836519 -0.000001 -0.000003 2.173886 2.967969 0.915666 5.135367 2.681607 -0.377601 5.432506 6.598820 -0.267617 -14.338876 5.161509 0.000001 0.000000 -241.504206 -119.039651 -340.452255 0.000003 -0.000003 -10.869107 70.516198 -33.677173 86.936219 0.000001 0.000004 -13.344795 8.956605 -23.336885 38.165075 -2.381901 -1.419601 6.136599 15.738253 3.722448 23.030539 -4.550498 -0.000006 0.000005 -1250.384918 -530.947214 -446.149022 0.000005 -0.000006 -11.106502 730.190498 -19.832001 716.161618 -0.000013 -0.000002 -12.874286 -281.376145 2.309826 73.977034 2.431894 0.469607 -2.489403 9.681902 -3.096065 -8.619939 0.000003 -0.000005 -18.200207 -147.997195 18.865717 129.292216 -0.000001 0.000003 -16.279902 58.455969 22.794004 43.192214 -1.988005 -0.073491 -2.713002 7.229134 6.578171 -6.188164 -0.000004 -0.000005 -19.547802 -1839.178261 14.521556 -11.625027 0.000003 0.000001 -14.881199 2169.719201 27.626397 -332.157072
